<?xml version="1.0" encoding="utf-8"?>
<!-- Generator: Adobe Illustrator 17.0.0, SVG Export Plug-In . SVG Version: 6.00 Build 0)  -->
<!DOCTYPE svg PUBLIC "-//W3C//DTD SVG 1.1//EN" "http://www.w3.org/Graphics/SVG/1.1/DTD/svg11.dtd">
<svg version="1.1" id="图层_1" xmlns="http://www.w3.org/2000/svg" xmlns:xlink="http://www.w3.org/1999/xlink" x="0px" y="0px"
	 width="400px" height="400px" viewBox="0 0 400 400" enable-background="new 0 0 400 400" xml:space="preserve">
<path d="M375.463,143.239c-15.248-17.819-36.228-29.925-59.118-34.124c-24.147-41.358-68.691-67.028-116.363-67.028
	c-47.707,0-92.237,25.699-116.329,67.106c-22.891,4.199-43.87,16.297-59.114,34.102C8.714,161.777,0,185.295,0,209.518
	c0,56.296,45.801,102.096,102.097,102.096l2.265,0.003c6.824,0,18.247,0,18.247-12.788c0-9.263-5.922-13.96-17.601-13.96
	c-0.938,0-1.951,0.025-3.098,0.076c-1.029,0.047-2.072,0.071-3.098,0.071c-20.103,0-38.786-8.949-52.606-25.2
	c-12.255-14.411-19.571-33.228-19.571-50.337c0-31.407,28.963-73.13,61.513-75.24l12.063-0.769l5.142-10.91
	c15.923-33.699,60.617-53.836,94.628-53.836c34.551,0,79.806,20.136,95.729,53.832l5.15,10.924l12.091,0.72
	c14.743,0.957,30.455,10.485,43.108,26.142c12.217,15.118,19.511,33.472,19.511,49.099c0,32.723-34.035,76.564-68.84,76.564H206.336
	l19.454-19.454c3.753-3.73,12.542-12.465,4.539-21.137c-2.153-2.333-4.899-3.566-7.941-3.566c-4.444,0-9.321,2.634-14.473,7.806
	l-36.867,34.662c-3.875,3.851-6.014,8.982-6.023,14.448c-0.008,5.485,2.139,10.657,6.056,14.573l40.108,39.004
	c2.599,2.57,7.37,5.571,12.263,5.571c3.198,0,5.972-1.24,8.012-3.573c3.125-3.46,6.975-10.658-2.353-19.99l-22.773-22.773h91.565
	c56.297,0,102.098-45.801,102.098-102.098C400,185.255,391.286,161.73,375.463,143.239z"/>
</svg>
